<svg xmlns="http://www.w3.org/2000/svg" width="14" height="13" fill="none"><path fill="#000" d="M.076.154c-.101.204-.101.708 0 .911.079.138.173.155 1.136.155H2.27c.024.08.439 2.252.893 4.658l.83 4.374-.164.228c-.713 1 .04 2.495 1.27 2.52.376.008 1.01-.334 1.23-.675.321-.488.384-1.162.156-1.618-.062-.13.047-.138 1.74-.138h1.81l-.094.179c-.141.268-.118 1.032.031 1.333.415.83 1.277 1.13 2.06.724.886-.464 1.145-1.675.51-2.423a.63.63 0 0 1-.102-.39c.024-.163-.031-.293-.172-.44l-.196-.203H4.958l-.118-.61-.117-.609h7.744c.146 0 .255-.179.255-.179.184-.238.267-.48.784-2.992.54-2.585.521-2.816.47-3.024-.041-.167-.1-.289-.306-.35-.008-.016-2.115 0-5.014 0H3.485l-.102-.61C3.226.017 3.195 0 1.526 0 .256 0 .155.008.076.154ZM12.79 2.846c-.059.294-.2 1.056-.427 2.13l-.408 1.934H4.495l-.337-1.813c-.18-.991-.352-1.902-.376-2.032l-.039-.22h9.046ZM5.357 10.82c.455.22.431.935-.039 1.13-.494.211-.98-.293-.783-.805.148-.357.47-.488.822-.325Zm6.268 0c.455.22.431.935-.039 1.13-.494.211-.98-.293-.783-.805.148-.357.47-.488.822-.325Z"/></svg>